HIERARCHY
ROOT Hips
{
 OFFSET 0.000000 0.000000 0.000000
 CHANNELS 6 Xposition Yposition Zposition Yrotation Xrotation Zrotation
 JOINT Chest
 {
  OFFSET 0.000000 9.585900 0.002600
  CHANNELS 3 Yrotation Xrotation Zrotation
  JOINT Chest2
  {
   OFFSET 0.000000 9.601200 -0.005300
   CHANNELS 3 Yrotation Xrotation Zrotation
   JOINT Chest3
   {
    OFFSET 0.000000 9.561800 0.000000
    CHANNELS 3 Yrotation Xrotation Zrotation
    JOINT Chest4
    {
     OFFSET 0.000000 9.552100 0.000000
     CHANNELS 3 Yrotation Xrotation Zrotation
     JOINT Neck
     {
      OFFSET 0.000000 14.453000 0.000000
      CHANNELS 3 Yrotation Xrotation Zrotation
      JOINT Head
      {
       OFFSET 0.000000 8.936500 -0.011300
       CHANNELS 3 Yrotation Xrotation Zrotation
       End Site
       {
        OFFSET 0.000000 17.073600 -0.006000
       }
      }
     }
     JOINT RightCollar
     {
      OFFSET -2.921100 9.558500 0.000000
      CHANNELS 3 Yrotation Xrotation Zrotation
      JOINT RightShoulder
      {
       OFFSET -13.519700 0.000000 0.000000
       CHANNELS 3 Yrotation Xrotation Zrotation
       JOINT RightElbow
       {
        OFFSET 0.000000 -29.696600 0.000000
        CHANNELS 3 Yrotation Xrotation Zrotation
        JOINT RightWrist
        {
         OFFSET 0.000000 -24.004700 0.000000
         CHANNELS 3 Yrotation Xrotation Zrotation
         End Site
         {
          OFFSET 0.000000 -17.728500 0.000000
         }
        }
       }
      }
     }
     JOINT LeftCollar
     {
      OFFSET 2.921100 9.558500 0.000000
      CHANNELS 3 Yrotation Xrotation Zrotation
      JOINT LeftShoulder
      {
       OFFSET 13.519700 0.000000 0.000000
       CHANNELS 3 Yrotation Xrotation Zrotation
       JOINT LeftElbow
       {
        OFFSET 0.000000 -29.696600 0.000000
        CHANNELS 3 Yrotation Xrotation Zrotation
        JOINT LeftWrist
        {
         OFFSET 0.000000 -24.004700 0.000000
         CHANNELS 3 Yrotation Xrotation Zrotation
         End Site
         {
          OFFSET 0.000000 -17.728500 0.000000
         }
        }
       }
      }
     }
    }
   }
  }
 }
 JOINT RightHip
 {
  OFFSET -7.771700 -0.012900 -0.001300
  CHANNELS 3 Yrotation Xrotation Zrotation
  JOINT RightKnee
  {
   OFFSET 0.000000 -40.869800 0.001200
   CHANNELS 3 Yrotation Xrotation Zrotation
   JOINT RightAnkle
   {
    OFFSET 0.000000 -39.717900 0.002100
    CHANNELS 3 Yrotation Xrotation Zrotation
    JOINT RightToe
    {
     OFFSET 0.000000 -4.965400 11.033500
     CHANNELS 3 Yrotation Xrotation Zrotation
     End Site
     {
      OFFSET 0.000000 -1.423100 5.872300
     }
    }
   }
  }
 }
 JOINT LeftHip
 {
  OFFSET 7.771700 -0.012900 -0.001300
  CHANNELS 3 Yrotation Xrotation Zrotation
  JOINT LeftKnee
  {
   OFFSET 0.000000 -40.869800 0.001200
   CHANNELS 3 Yrotation Xrotation Zrotation
   JOINT LeftAnkle
   {
    OFFSET 0.000000 -39.717900 0.002100
    CHANNELS 3 Yrotation Xrotation Zrotation
    JOINT LeftToe
    {
     OFFSET 0.000000 -4.965400 11.033500
     CHANNELS 3 Yrotation Xrotation Zrotation
     End Site
     {
      OFFSET 0.000000 -1.423100 5.872300
     }
    }
   }
  }
 }
}
MOTION
Frames: 6
Frame Time: 0.008333
-50.818055 48.373405 18.617078 173.955789 -29.633958 -0.848789 -0.224910 11.000816 2.264428 -0.284218 6.308608 1.730547 -0.325793 7.886876 2.161525 -0.284227 6.308617 1.730591 -1.205979 21.818451 -3.286311 -1.274299 4.730867 -5.611263 2.811573 5.995930 -4.422483 -4.542637 -17.053135 -8.061778 59.091679 -71.071662 -49.690175 8.945454 5.066023 -28.485200 -1.381114 1.110653 -0.807775 11.632183 -15.096620 -0.372336 163.359427 -82.571584 166.672341 -0.954666 10.691111 28.296514 22.603502 -52.656899 -30.379870 -108.630447 71.242402 -97.359166 2.649741 -3.789392 1.511060 0.058893 -0.840074 0.001697 -5.648403 -54.858493 13.725960 100.101125 82.967824 97.825286 -5.754378 -8.539457 -1.133664 0.295444 0.683884 0.163068
-50.835505 48.397321 18.612657 173.929123 -29.367472 -0.874554 -0.228245 10.964061 2.285580 -0.277090 6.293830 1.742146 -0.316712 7.868432 2.176176 -0.277051 6.293800 1.742149 -1.223617 21.772326 -3.300053 -1.300794 4.644778 -5.631502 2.810855 5.950843 -4.448150 -4.521032 -17.015306 -8.033239 59.063336 -70.658660 -49.655540 9.055776 5.207258 -28.318890 -1.392056 1.038783 -0.804893 11.567626 -14.928966 -0.409520 170.659396 -83.057727 159.702540 -1.114912 10.845345 28.153109 22.703721 -52.862235 -30.506978 -108.517940 71.284715 -97.207532 2.648869 -3.795777 1.517156 0.056286 -0.829379 -0.009426 -5.622078 -55.111333 13.781983 99.995427 82.980608 97.730576 -5.772961 -8.534801 -1.099105 0.297548 0.668733 0.165649
-50.848840 48.422317 18.606333 173.909349 -29.115210 -0.927835 -0.231172 10.932295 2.330040 -0.271305 6.284298 1.753388 -0.309331 7.856448 2.190354 -0.271266 6.284262 1.753402 -1.238279 21.721147 -3.316179 -1.321110 4.549544 -5.656927 2.815613 5.903373 -4.470530 -4.499938 -16.982800 -8.002870 59.014979 -70.271069 -49.593044 9.159985 5.297186 -28.191120 -1.404263 0.967344 -0.800935 11.500648 -14.772495 -0.433739 179.306737 -83.355178 151.387355 -1.296089 10.956296 27.978963 22.769220 -53.063256 -30.588444 -108.410597 71.319151 -97.061800 2.655204 -3.785723 1.522960 0.046013 -0.839685 -0.012892 -5.607011 -55.346158 13.871650 99.842226 83.019810 97.619550 -5.839110 -8.538493 -1.108874 0.357515 0.662386 0.204217
-50.865594 48.446990 18.598169 173.886027 -28.872818 -0.957955 -0.235766 10.906761 2.352385 -0.267399 6.277628 1.764481 -0.304300 7.848103 2.204323 -0.267403 6.277645 1.764499 -1.247493 21.666329 -3.337048 -1.323687 4.439046 -5.685417 2.825990 5.856660 -4.492291 -4.475078 -16.955338 -7.973623 58.932279 -69.920024 -49.489908 9.246578 5.342649 -28.122283 -1.412102 0.901992 -0.806990 11.433616 -14.634356 -0.442695 -171.269958 -83.428903 142.285475 -1.476334 11.025063 27.786359 22.867690 -53.248391 -30.699192 -108.312740 71.352368 -96.926274 2.643138 -3.776419 1.523704 0.045050 -0.853392 -0.001652 -5.606314 -55.569732 13.962549 99.805990 83.044568 97.561069 -5.847238 -8.537313 -1.066317 0.379523 0.646475 0.198539
-50.886231 48.470633 18.588359 173.865748 -28.639700 -0.964757 -0.249409 10.892246 2.350807 -0.265143 6.271909 1.775466 -0.301275 7.841018 2.218143 -0.265144 6.271953 1.775467 -1.250531 21.609144 -3.363254 -1.303926 4.307140 -5.707554 2.841597 5.814847 -4.511609 -4.440177 -16.934949 -7.950059 58.811717 -69.604606 -49.352800 9.311787 5.351793 -28.115401 -1.414064 0.849298 -0.826322 11.367155 -14.525602 -0.438515 -161.975874 -83.284924 133.293514 -1.658737 11.069178 27.581903 22.986662 -53.441289 -30.832785 -108.266325 71.386905 -96.880048 2.620317 -3.743071 1.545246 0.047612 -0.889446 0.001043 -5.617758 -55.789604 14.026476 99.870816 83.050652 97.584753 -5.828643 -8.518226 -1.022236 0.346605 0.611945 0.192904
-50.906708 48.491869 18.579444 173.842234 -28.402682 -0.970200 -0.260080 10.876374 2.352856 -0.264304 6.267052 1.785165 -0.300066 7.834909 2.230270 -0.264344 6.267085 1.785162 -1.247736 21.551011 -3.393176 -1.301099 4.198042 -5.749655 2.866761 5.780985 -4.523500 -4.396461 -16.926708 -7.934176 58.648820 -69.319799 -49.184049 9.352863 5.338355 -28.159879 -1.414530 0.813646 -0.853488 11.308063 -14.453315 -0.423220 -153.500655 -82.971925 125.099509 -1.851237 11.094273 27.366895 23.113442 -53.639100 -30.971330 -108.218769 71.411655 -96.828690 2.603352 -3.714734 1.552164 0.053811 -0.919228 0.012857 -5.626910 -56.014052 14.092198 99.929112 83.060556 97.605491 -5.823633 -8.502809 -0.986915 0.326910 0.582146 0.198156
